<?xml version="1.0" encoding="UTF-8" standalone="no"?>

<svg
	xmlns="http://www.w3.org/2000/svg" version="1.1"
	xmlns:freecad="http://www.freecadweb.org/wiki/index.php?title=Svg_Namespace"
	width="594mm"
	height="420mm"
	viewBox="0 0 594 420">
	<!-- Working space 20 10 584 410 -->
	<!-- Title block 404 350 584 410 -->
	<g>
		<rect
			id="drawing-border"
			style="fill:none;stroke:#000000;stroke-width:0.35;stroke-linecap:miter;stroke-miterlimit:4"
			width="564"
			height="400"
			x="20"
			y="10" />
			<!-- width-30, height-20 -->
		<g
			transform="translate(384,123)">
			<!-- A4 Portrait based for other formats width-210, height-297 -->
			<!--        page       rect   translation
			               w    h    rw   rh   tx   ty
			        A4-P  210  297  180  277    0    0
			        A3-L  420  297  390  277  210    0
			        A2-L  594  420  564  400  384  123
			        A1-L  841  594  811  574  631  297
			        A0-L 1189  841 1159  821  979  544
			-->
			<g
				id="titleblock-structure"
				style="fill:none;stroke:#000000;stroke-width:0.35;stroke-linecap:miter;stroke-miterlimit:4">
				<rect width="180" height="60" x="20" y="227" />
				<path d="m 20,239 h 180" />
				<path d="m 80,227 v 12" />
				<path d="m 140,239 v 48" />
				<path d="m 160,239 v 12" />
				<path d="m 180,239 v 12" />
				<path d="m 140,251 h 60" />
				<path d="m 140,275 h 60" />
				<path d="m 180,275 v 12" />
			</g>
			<g
				id="titleblock-text-non-editable"
				style="font-size:3px;text-anchor:start;fill:#000000;font-family:osifont"
				xml:space="preserve">
				<text x="21" y="230">Created by:</text>
				<text x="81" y="230">Title:</text>
				<text x="21" y="242">Supplementary information:</text>
				<text x="141" y="242">Size:</text>
				<text x="161" y="242">Sheet:</text>
				<text x="181" y="242">Scale:</text>
				<text x="141" y="254">Part number:</text>
				<text x="141" y="266">Drawing number:</text>
				<text x="141" y="278">Date:</text>
				<text x="181" y="278">Revision:</text>
			</g>
			<g
				id="titleblock-text-editable"
				style="font-size:5px;text-anchor:middle;fill:#000000;font-family:osifont"
				xml:space="preserve">
				<text freecad:editable="AUTHOR NAME" x="50" y="236"><tspan>Kyle Severson</tspan></text>
				<text freecad:editable="DRAWING TITLE" x="140" y="236"><tspan>Headcap_side</tspan></text>
				<text freecad:editable="SI-1" x="80" y="248"><tspan></tspan></text>
				<text freecad:editable="SI-2" x="80" y="255"><tspan></tspan></text>
				<text freecad:editable="FreeCAD DRAWING" x="80" y="262"><tspan>FreeCAD DRAWING</tspan></text>
				<text freecad:editable="SI-4" x="80" y="269"><tspan></tspan></text>
				<text freecad:editable="SI-5" x="80" y="276"><tspan></tspan></text>
				<text freecad:editable="SI-6" x="80" y="283"><tspan></tspan></text>
				<text freecad:editable="FC-SI" x="150" y="248"><tspan>A2</tspan></text>
				<text freecad:editable="FC-SH" x="170" y="248"><tspan>X / Y</tspan></text>
				<text freecad:editable="FC-SC" x="190" y="248"><tspan>1 Inch</tspan></text>
				<text freecad:editable="PN" x="170" y="260"><tspan></tspan></text>
				<text freecad:editable="DN" x="170" y="272"><tspan></tspan></text>
				<text freecad:editable="FC-DATE" x="160" y="284"><tspan>12/03/2019</tspan></text>
				<text freecad:editable="FC-REV" x="190" y="284"><tspan>REV A</tspan></text>
			</g>
			<!-- Set display:none to hide FreeCAD Logo -->
			<g
				style="display:inline"
				id="freecad-logo"
				transform="translate(128.5,276)"
				fill-rule="evenodd"
				stroke="#000"
				stroke-width="0.35"
				fill="none">
					<path d="m0.1524 0.15254v8.8549h1.9744v-3.4652h1.396v-1.3661h-1.396v-1.4745h3.4391v-2.5441l-5.4135-0.005z"/>
					<path d="m7.7927 3.4504-0.50715-0.176-0.48387-1.2366-0.76115 0.04-0.34718 1.2787-0.4859 0.23269-1.2119-0.53015-0.51188 0.56882 0.65892 1.1485-0.18006 0.50567-1.2366 0.48387 0.044064 0.76263 1.2787 0.34718 0.23269 0.4859-0.53421 1.2104 0.56882 0.51188 1.1485-0.65891 0.50973 0.18155 0.4798 1.2351 0.7667-0.04258 0.34311-1.2802 0.4859-0.23269 1.2145 0.5357 0.51188-0.56882-0.65891-1.1485 0.17748-0.51122 1.2351-0.4798-0.03851-0.76521-1.2802-0.34311-0.23269-0.4859 0.53163-1.216-0.56881-0.51184zm-0.5715 1.2244 0.23576 0.13679 0.20426 0.18519 0.16353 0.22101 0.11763 0.24572 0.06916 0.26489 0.01146 0.27146-0.03921 0.27139-0.08948 0.25764-0.14234 0.23834-0.17964 0.20167-0.22101 0.16353-0.24572 0.11763-0.26489 0.06916-0.27295 0.01553-0.2719-0.04-0.2576-0.089-0.2383-0.143-0.2002-0.183-0.165-0.217-0.1177-0.246-0.0676-0.269-0.0156-0.273 0.039206-0.2714 0.089484-0.25764 0.14085-0.23427 0.18113-0.20574 0.22101-0.16352 0.24572-0.11763 0.26895-0.06768 0.27147-0.01146 0.27139 0.03921 0.25764 0.08948z"/>
			</g>
		</g>
	</g>
<g id="Ortho_0_0"
   transform="rotate(0,165.75,281.25) translate(165.75,281.25) scale(12.5,12.5)"
  >
<g   fill="none"
   stroke="rgb(0, 0, 0)"
   stroke-linecap="butt"
   stroke-linejoin="miter"
   stroke-width="0.028000"
   transform="scale(1,-1)"
  >
<path id= "1" d=" M -9 -7 L -9 18.4 " />
<path id= "2" d=" M 16.4 -7 L 16.4 18.4 " />
<path id= "3" d=" M -9 -7 L 16.4 -7 " />
<path id= "4" d=" M -9 18.4 L 16.4 18.4 " />
</g>
</g>



<g id="Ortho_0_001"
   transform="rotate(0,158.373,277.19) translate(158.373,277.19) scale(12.5,12.5)"
  >
<g   fill="none"
   stroke="rgb(0, 0, 0)"
   stroke-linecap="butt"
   stroke-linejoin="miter"
   stroke-width="0.028000"
   transform="scale(1,-1)"
  >
<path id= "1" d=" M -3.4 3.39 L -3.4 6.53439 " />
<path id= "2" d=" M -4.4 3.39 L -4.4 6.7996 " />
<path d="M-4.4 6.7996 A0.5 0.5 0 0 0 -4.33301 7.0496" /><path d="M-4.15 3.14 A0.25 0.25 0 0 0 -4.4 3.39" /><path id= "5" d=" M -4.33301 7.0496 L -1.90791 11.25 " />
<path id= "6" d=" M -4.15 3.14 L -3.65 3.14 " />
<path d="M-1.90791 11.25 A0.5 0.5 0 0 0 -1.4749 11.5" /><path d="M-3.4 3.39 A0.25 0.25 0 0 0 -3.65 3.14" /><path id= "9" d=" M -1.4749 11.5 L 1.47391 11.5 " />
<path d="M1.47391 11.5 A0.5 0.5 0 0 0 1.90692 11.25" /><path d="M-3.4 6.53439 A0.5 0.5 0 0 0 -3.33301 6.78439" /><path id= "12" d=" M 2.11522 10.8892 L 1.90692 11.25 " />
<path id= "13" d=" M -3.33301 6.78439 L -1.33214 10.25 " />
<path d="M2.11522 10.8892 A0.5 0.5 0 0 1 2.79823 10.7062" /><path d="M-1.33214 10.25 A0.5 0.5 0 0 0 -0.899128 10.5" /><path id= "16" d=" M 8.79485 14.1683 L 2.79823 10.7062 " />
<path id= "17" d=" M -0.899128 10.5 L 0.90068 10.5 " />
<path id= "18" d=" M 11.9362 15.0691 L 8.79485 14.1683 " />
<path d="M0.90068 10.5 A0.5 0.5 0 0 0 1.33369 10.25" /><path id= "20" d=" M 11.9362 15.0691 L 12.7303 13.6936 " />
<path id= "21" d=" M 3.33301 6.78708 L 1.33369 10.25 " />
<path id= "22" d=" M 12.7303 13.6936 L 10.3781 11.422 " />
<path d="M3.33301 6.78708 A0.5 0.5 0 0 0 3.4 6.53708" /><path id= "24" d=" M 10.3781 11.422 L 4.38323 7.9609 " />
<path id= "25" d=" M 3.4 3.37618 L 3.4 6.53708 " />
<path d="M4.38323 7.9609 A0.5 0.5 0 0 1 4.20022 7.27788" /><path d="M3.4 3.37618 A0.5 0.5 0 0 0 3.24545 3.01471" /><path id= "28" d=" M 4.33301 7.04788 L 4.20022 7.27788 " />
<path d="M3.24545 3.01471 A5 5 0 0 1 2.00614 1.12271" /><path d="M4.33301 7.04788 A0.5 0.5 0 0 0 4.4 6.79788" /><path d="M2.00614 1.12271 A0.5 0.5 0 0 1 2.22553 0.517422" /><path id= "32" d=" M 4.4 3.21244 L 4.4 6.79788 " />
<path id= "33" d=" M 2.22553 0.517422 L 3.70749 -0.33819 " />
<path d="M4.4 3.21244 A0.5 0.5 0 0 1 4.65 2.77942" /><path id= "35" d=" M 3.71029 -0.338434 L 3.70749 -0.33819 " />
<path id= "36" d=" M 4.65 2.77942 L 10.6284 -0.672182 " />
<path id= "37" d=" M 3.71029 -0.338434 L 9.04314 -3.41736 " />
<path id= "38" d=" M 10.6284 -0.672182 L 12.9804 -2.94349 " />
<path id= "39" d=" M 9.04314 -3.41736 L 12.1864 -4.31868 " />
<path id= "40" d=" M 12.1864 -4.31868 L 12.9804 -2.94349 " />
<path d="M4.4 2.16652 A1 1 0 1 1 4.4 0.333485" /><path d="M4.86603 0.75 A1 1 0 0 1 4.4 2.16652" /><path d="M4.4 0.333485 A1 1 0 0 1 4.86603 0.75" /><path d="M3.01419 9.33216 A1 1 0 0 1 3.36174 8.73018" /><path d="M4.86603 10 A1 1 0 0 1 3.01419 9.33216" /><path d="M3.36174 8.73018 A1 1 0 0 1 4.86603 10" /><circle cx ="6.59808" cy ="-0.25" r ="1" /><circle cx ="9.19615" cy ="-1.75" r ="1" /><circle cx ="9.19615" cy ="12.5" r ="1" /><circle cx ="6.59808" cy ="11" r ="1" /></g>
</g>



</svg>

